<svg width="49" height="40" viewBox="0 0 49 40" fill="currentColor" stroke="currentColor" xmlns="http://www.w3.org/2000/svg">
<path d="M1 25.5L1.71704 26.6188C2.26865 27.4795 3.22055 28 4.24281 28H18.0909M18.0909 28V27V25.5V25.5C18.0909 24.6716 18.7625 24 19.5909 24H29.9432C30.7716 24 31.4432 24.6716 31.4432 25.5V25.5V27V28M18.0909 28V29V30.5V30.5C18.0909 31.3284 18.7625 32 19.5909 32H29.9432C30.7716 32 31.4432 31.3284 31.4432 30.5V30.5V29V28M31.4432 28H44.7572C45.7795 28 46.7314 27.4795 47.283 26.6188L48 25.5" stroke-width="2" stroke-linecap="round"/>
<rect x="1" y="7" width="47" height="32" rx="6" stroke="currentColor" stroke-width="2"/>
<path d="M15 6L15.0001 3.99989C15.0001 2.34308 16.3433 1 18.0001 1H30.9999C32.6568 1 34 2.34321 33.9999 4.00011L33.9998 6" stroke-width="2" stroke-linecap="round"/>
</svg>
