<svg width="46" height="44" viewBox="0 0 46 44" fill="currentColor" xmlns="http://www.w3.org/2000/svg">
<mask id="mask0_130_699" style="mask-type:alpha" maskUnits="userSpaceOnUse" x="0" y="0" width="46" height="44">
<rect width="46" height="44" fill="#D9D9D9"/>
</mask>
<g mask="url(#mask0_130_699)">
<mask id="path-2-inside-1_130_699" fill="white">
<path d="M44.9999 21.9972C44.999 21.551 44.7672 21.1369 44.3873 20.9027L39.9156 18.1461L44.392 15.36C44.7695 15.125 44.9992 14.7121 44.9999 14.2675C45.0006 13.8229 44.7721 13.4093 44.3953 13.1732L23.6844 0.19671C23.2658 -0.0655701 22.7341 -0.0655701 22.3155 0.19671L1.60466 13.1732C1.22791 13.4093 0.9994 13.8229 1 14.2675C1.00069 14.7122 1.2304 15.1251 1.60792 15.36L6.05362 18.127L1.60594 20.907C1.22868 21.1428 0.999657 21.5564 1.00009 22.0013C1.00052 22.4462 1.23031 22.8594 1.60801 23.0945L6.05371 25.8615L1.60594 28.6413C1.22928 28.8768 1.00034 29.2895 1.00009 29.7337C0.999829 30.178 1.22834 30.591 1.60474 30.8268L22.3156 43.8033C22.5249 43.9344 22.7625 44 23 44C23.2375 44 23.4751 43.9344 23.6844 43.8033L44.3953 30.8268C44.7729 30.5902 45.0015 30.1753 44.9999 29.7297C44.9983 29.2841 44.7666 28.8709 44.3873 28.6371L39.9156 25.8806L44.392 23.0944C44.7709 22.8586 45.0009 22.4435 44.9999 21.9972ZM4.7228 14.2621L23 2.8104L41.2772 14.2621C41.1015 14.3714 23.5238 25.3119 23 25.638L4.7228 14.2621ZM41.2688 29.7434L23 41.1898L4.71919 29.7358L8.49089 27.3785L22.3189 35.9851C22.5273 36.1148 22.7637 36.1797 23 36.1797C23.2363 36.1797 23.4727 36.1148 23.6811 35.9851L37.471 27.4022L41.2688 29.7434ZM23 33.3723L4.72495 21.9979L8.49089 19.6441L22.3189 28.2507C22.5273 28.3805 22.7637 28.4454 23 28.4454C23.2363 28.4454 23.4727 28.3805 23.6811 28.2507L37.471 19.6678L41.2629 22.0053C41.1582 22.0706 23.4838 33.0711 23 33.3723Z"/>
</mask>
<path d="M44.3873 20.9027L46.4867 17.4979L46.4863 17.4976L44.3873 20.9027ZM39.9156 18.1461L37.8019 14.7502L32.3195 18.1625L37.8166 21.5512L39.9156 18.1461ZM44.392 15.36L42.2785 11.964L42.2783 11.964L44.392 15.36ZM44.9999 14.2675L48.9999 14.2737L48.9999 14.2737L44.9999 14.2675ZM44.3953 13.1732L42.2715 16.5628L42.2717 16.563L44.3953 13.1732ZM23.6844 0.19671L21.5606 3.58632L21.5606 3.58633L23.6844 0.19671ZM22.3155 0.19671L24.4393 3.58633L24.4393 3.58632L22.3155 0.19671ZM1.60466 13.1732L-0.519132 9.7836L-0.519231 9.78366L1.60466 13.1732ZM1 14.2675L-3 14.273L-2.99999 14.2737L1 14.2675ZM1.60792 15.36L3.72156 11.964L3.72089 11.9636L1.60792 15.36ZM6.05362 18.127L8.17372 21.5189L13.6119 18.1198L8.16726 14.731L6.05362 18.127ZM1.60594 20.907L-0.514152 17.515L-0.514191 17.5151L1.60594 20.907ZM1.60801 23.0945L-0.505944 26.4903L-0.505636 26.4905L1.60801 23.0945ZM6.05371 25.8615L8.17368 29.2535L13.6123 25.8545L8.16735 22.4655L6.05371 25.8615ZM1.60594 28.6413L-0.51403 25.2493L-0.5144 25.2495L1.60594 28.6413ZM1.60474 30.8268L3.72853 27.4372L3.72835 27.437L1.60474 30.8268ZM22.3156 43.8033L20.1918 47.1929L20.1921 47.1931L22.3156 43.8033ZM23.6844 43.8033L21.5606 40.4137L21.5603 40.4139L23.6844 43.8033ZM44.3953 30.8268L42.2715 27.4371L42.2715 27.4372L44.3953 30.8268ZM44.3873 28.6371L46.4863 25.2321L46.4863 25.2321L44.3873 28.6371ZM39.9156 25.8806L37.8019 22.4846L32.3195 25.897L37.8166 29.2856L39.9156 25.8806ZM44.392 23.0944L42.2784 19.6984L42.2783 19.6985L44.392 23.0944ZM4.7228 14.2621L2.59901 10.8725L-2.82889 14.2734L2.60914 17.6581L4.7228 14.2621ZM23 2.8104L25.1238 -0.579214L23 -1.90989L20.8762 -0.579214L23 2.8104ZM41.2772 14.2621L43.3906 17.6582L48.8293 14.2737L43.401 10.8725L41.2772 14.2621ZM23 25.638L20.8863 29.0339L23.0001 30.3496L25.1138 29.0338L23 25.638ZM41.2688 29.7434L43.3926 33.133L48.8466 29.7158L43.3678 26.3384L41.2688 29.7434ZM23 41.1898L20.8762 44.5794L23 45.9101L25.1238 44.5794L23 41.1898ZM4.71919 29.7358L2.59917 26.3438L-2.82121 29.7316L2.5954 33.1254L4.71919 29.7358ZM8.49089 27.3785L10.6045 23.9825L8.48647 22.6642L6.37087 23.9865L8.49089 27.3785ZM22.3189 35.9851L24.4326 32.5891L24.4325 32.5891L22.3189 35.9851ZM23.6811 35.9851L21.5675 32.5891L21.5674 32.5891L23.6811 35.9851ZM37.471 27.4022L39.57 23.9972L37.4608 22.697L35.3573 24.0062L37.471 27.4022ZM23 33.3723L20.8863 36.7683L23.0003 38.084L25.114 36.768L23 33.3723ZM4.72495 21.9979L2.60494 18.6059L-2.83351 22.0049L2.61129 25.3938L4.72495 21.9979ZM8.49089 19.6441L10.6045 16.2482L8.48647 14.9299L6.37088 16.2521L8.49089 19.6441ZM22.3189 28.2507L24.4326 24.8548L24.4325 24.8548L22.3189 28.2507ZM23.6811 28.2507L21.5675 24.8548L21.5674 24.8548L23.6811 28.2507ZM37.471 19.6678L39.5699 16.2628L37.4608 14.9627L35.3573 16.2719L37.471 19.6678ZM41.2629 22.0053L43.3772 25.4009L48.8581 21.9883L43.3619 18.6003L41.2629 22.0053ZM48.9999 21.9888C48.996 20.1572 48.0448 18.4587 46.4867 17.4979L42.2879 24.3074C41.4896 23.8152 41.0019 22.9448 40.9999 22.0057L48.9999 21.9888ZM46.4863 17.4976L42.0146 14.7411L37.8166 21.5512L42.2883 24.3077L46.4863 17.4976ZM42.0293 21.5421L46.5057 18.7559L42.2783 11.964L37.8019 14.7502L42.0293 21.5421ZM46.5055 18.756C48.0547 17.7919 48.9971 16.0976 48.9999 14.2737L40.9999 14.2614C41.0014 13.3266 41.4843 12.4582 42.2785 11.964L46.5055 18.756ZM48.9999 14.2737C49.0027 12.4494 48.0652 10.7522 46.5188 9.78345L42.2717 16.563C41.479 16.0664 40.9985 15.1964 40.9999 14.2614L48.9999 14.2737ZM46.519 9.7836L25.8082 -3.19291L21.5606 3.58633L42.2715 16.5628L46.519 9.7836ZM25.8082 -3.1929C24.0907 -4.26903 21.9092 -4.26903 20.1917 -3.1929L24.4393 3.58632C23.559 4.13789 22.4409 4.13789 21.5606 3.58632L25.8082 -3.1929ZM20.1917 -3.19291L-0.519132 9.7836L3.72844 16.5628L24.4393 3.58633L20.1917 -3.19291ZM-0.519231 9.78366C-2.0653 10.7524 -3.00246 12.4493 -3 14.273L5 14.2621C5.00126 15.1965 4.52111 16.0662 3.72854 16.5628L-0.519231 9.78366ZM-2.99999 14.2737C-2.99717 16.0974 -2.05496 17.7921 -0.505052 18.7564L3.72089 11.9636C4.51576 12.4581 4.99855 13.3269 5 14.2614L-2.99999 14.2737ZM-0.505722 18.7559L3.93998 21.5229L8.16726 14.731L3.72156 11.964L-0.505722 18.7559ZM3.93353 14.7351L-0.514152 17.515L3.72604 24.2989L8.17372 21.5189L3.93353 14.7351ZM-0.514191 17.5151C-2.0618 18.4824 -3.00167 20.1795 -2.99991 22.0052L5.00009 21.9974C5.00099 22.9333 4.51916 23.8032 3.72608 24.2989L-0.514191 17.5151ZM-2.99991 22.0052C-2.99815 23.8307 -2.05521 25.5258 -0.505944 26.4903L3.72196 19.6987C4.51583 20.1929 4.99918 21.0617 5.00009 21.9974L-2.99991 22.0052ZM-0.505636 26.4905L3.94007 29.2575L8.16735 22.4655L3.72165 19.6985L-0.505636 26.4905ZM3.93373 22.4695L-0.51403 25.2493L3.72592 32.0333L8.17368 29.2535L3.93373 22.4695ZM-0.5144 25.2495C-2.05948 26.2154 -2.99885 27.9088 -2.99991 29.7314L5.00009 29.7361C4.99954 30.6703 4.51804 31.5381 3.72629 32.0331L-0.5144 25.2495ZM-2.99991 29.7314C-3.00097 31.5543 -2.06329 33.249 -0.518871 34.2165L3.72835 27.437C4.51996 27.933 5.00063 28.8016 5.00009 29.7361L-2.99991 29.7314ZM-0.519046 34.2164L20.1918 47.1929L24.4394 40.4137L3.72853 27.4372L-0.519046 34.2164ZM20.1921 47.1931C21.0504 47.7307 22.0262 48 23 48V40C23.4988 40 23.9995 40.1381 24.4391 40.4135L20.1921 47.1931ZM23 48C23.9734 48 24.9497 47.7309 25.8085 47.1927L21.5603 40.4139C22.0006 40.1379 22.5016 40 23 40V48ZM25.8082 47.1929L46.519 34.2164L42.2715 27.4372L21.5606 40.4137L25.8082 47.1929ZM46.519 34.2164C48.0683 33.2457 49.0066 31.5435 48.9999 29.715L40.9999 29.7444C40.9965 28.8071 41.4774 27.9347 42.2715 27.4371L46.519 34.2164ZM48.9999 29.715C48.9932 27.8866 48.0426 26.1914 46.4863 25.2321L42.2882 32.0421C41.4906 31.5504 41.0034 30.6816 40.9999 29.7444L48.9999 29.715ZM46.4863 25.2321L42.0146 22.4756L37.8166 29.2856L42.2883 32.0421L46.4863 25.2321ZM42.0293 29.2765L46.5057 26.4903L42.2783 19.6985L37.8019 22.4846L42.0293 29.2765ZM46.5055 26.4904C48.0603 25.5228 49.0038 23.8198 48.9999 21.9888L40.9999 22.0057C40.9979 21.0673 41.4814 20.1944 42.2784 19.6984L46.5055 26.4904ZM6.84659 17.6517L25.1238 6.20002L20.8762 -0.579214L2.59901 10.8725L6.84659 17.6517ZM20.8762 6.20002L39.1534 17.6517L43.401 10.8725L25.1238 -0.579214L20.8762 6.20002ZM39.1638 10.866C38.9879 10.9755 21.41 21.916 20.8862 22.2421L25.1138 29.0338C25.6375 28.7078 43.2151 17.7674 43.3906 17.6582L39.1638 10.866ZM25.1137 22.242L6.83646 10.8662L2.60914 17.6581L20.8863 29.0339L25.1137 22.242ZM39.145 26.3537L20.8762 37.8001L25.1238 44.5794L43.3926 33.133L39.145 26.3537ZM25.1238 37.8002L6.84298 26.3462L2.5954 33.1254L20.8762 44.5794L25.1238 37.8002ZM6.83921 33.1278L10.6109 30.7704L6.37087 23.9865L2.59917 26.3438L6.83921 33.1278ZM6.37723 30.7744L20.2052 39.381L24.4325 32.5891L10.6045 23.9825L6.37723 30.7744ZM20.2052 39.381C21.0606 39.9134 22.0315 40.1797 23 40.1797V32.1797C23.4958 32.1797 23.9941 32.3162 24.4326 32.5891L20.2052 39.381ZM23 40.1797C23.9685 40.1797 24.9394 39.9134 25.7948 39.381L21.5674 32.5891C22.0059 32.3162 22.5042 32.1797 23 32.1797V40.1797ZM25.7948 39.381L39.5846 30.7981L35.3573 24.0062L21.5675 32.5891L25.7948 39.381ZM35.3719 30.8072L39.1697 33.1484L43.3678 26.3384L39.57 23.9972L35.3719 30.8072ZM25.1137 29.9764L6.8386 18.6019L2.61129 25.3938L20.8863 36.7683L25.1137 29.9764ZM6.84496 25.3898L10.6109 23.0361L6.37088 16.2521L2.60494 18.6059L6.84496 25.3898ZM6.37723 23.0401L20.2052 31.6467L24.4325 24.8548L10.6045 16.2482L6.37723 23.0401ZM20.2052 31.6466C21.0606 32.1791 22.0315 32.4454 23 32.4454V24.4454C23.4958 24.4454 23.9941 24.5819 24.4326 24.8548L20.2052 31.6466ZM23 32.4454C23.9685 32.4454 24.9394 32.1791 25.7948 31.6466L21.5674 24.8548C22.0059 24.5819 22.5042 24.4454 23 24.4454V32.4454ZM25.7948 31.6467L39.5846 23.0638L35.3573 16.2719L21.5675 24.8548L25.7948 31.6467ZM35.372 23.0729L39.164 25.4104L43.3619 18.6003L39.5699 16.2628L35.372 23.0729ZM39.1487 18.6097C39.0432 18.6754 21.3718 29.6741 20.886 29.9766L25.114 36.768C25.5958 36.4681 43.2732 25.4657 43.3772 25.4009L39.1487 18.6097Z" mask="url(#path-2-inside-1_130_699)"/>
</g>
</svg>
