<svg width="15" height="10" viewBox="0 0 15 10" fill="none" xmlns="http://www.w3.org/2000/svg">
<path fill-rule="evenodd" clip-rule="evenodd" d="M10.2115 9.11089C10.1585 9.05636 10.1161 8.99134 10.0869 8.91955C10.0577 8.84776 10.0422 8.77061 10.0413 8.69251C10.0403 8.61442 10.054 8.53692 10.0815 8.46445C10.109 8.39199 10.1498 8.32597 10.2015 8.2702L13.1417 5.09282L10.1266 1.9864C10.0737 1.93182 10.0314 1.86678 10.0023 1.795C9.97309 1.72321 9.9576 1.64608 9.95667 1.56802C9.95574 1.48995 9.96939 1.41248 9.99683 1.34002C10.0243 1.26756 10.065 1.20153 10.1166 1.14571C10.1682 1.08988 10.2298 1.04535 10.2978 1.01467C10.3658 0.983978 10.4388 0.96773 10.5128 0.966848C10.5867 0.965967 10.6601 0.98047 10.7288 1.00953C10.7975 1.03859 10.8601 1.08164 10.9131 1.13622L14.3303 4.65825C14.3833 4.71278 14.4256 4.7778 14.4549 4.84959C14.4841 4.92138 14.4996 4.99853 14.5005 5.07663C14.5014 5.15472 14.4878 5.23222 14.4603 5.30469C14.4328 5.37715 14.392 5.44317 14.3403 5.49894L11.008 9.1014C10.9564 9.15731 10.8948 9.20192 10.8269 9.23266C10.7589 9.26341 10.6858 9.27969 10.6118 9.28057C10.5378 9.28145 10.4644 9.26692 10.3957 9.2378C10.327 9.20868 10.2644 9.16556 10.2115 9.11089V9.11089Z" fill="#56597A" fill-opacity="0.6"/>
<path fill-rule="evenodd" clip-rule="evenodd" d="M13.937 5.08329C13.9389 5.24076 13.8815 5.39247 13.7773 5.50507C13.6732 5.61767 13.5308 5.68193 13.3817 5.6837L1.57 5.82445C1.42083 5.82622 1.27702 5.76538 1.17021 5.65529C1.0634 5.54521 1.00234 5.3949 1.00047 5.23744C0.99859 5.07998 1.05605 4.92826 1.1602 4.81566C1.26436 4.70306 1.40668 4.63881 1.55585 4.63703L13.3675 4.49629C13.5167 4.49451 13.6605 4.55536 13.7673 4.66544C13.8741 4.77553 13.9352 4.92583 13.937 5.08329Z" fill="#56597A" fill-opacity="0.6"/>
</svg>
