<svg width="19" height="11" viewBox="0 0 19 11" fill="none" xmlns="http://www.w3.org/2000/svg">
<path fill-rule="evenodd" clip-rule="evenodd" d="M6.02335 10.7102C5.95078 10.7829 5.86456 10.8407 5.76965 10.88C5.67473 10.9194 5.57298 10.9397 5.47022 10.9397C5.36746 10.9397 5.26571 10.9194 5.1708 10.88C5.07588 10.8407 4.98967 10.7829 4.9171 10.7102L0.229595 6.02268C0.15684 5.9501 0.0991177 5.86389 0.0597326 5.76898C0.0203475 5.67406 7.42665e-05 5.57231 7.42665e-05 5.46955C7.42665e-05 5.36679 0.0203475 5.26504 0.0597326 5.17012C0.0991177 5.07521 0.15684 4.989 0.229595 4.91642L4.9171 0.228924C5.06379 0.0822264 5.26276 -0.000187103 5.47022 -0.000187099C5.67768 -0.000187095 5.87665 0.0822264 6.02335 0.228924C6.17005 0.375622 6.25246 0.574587 6.25246 0.782049C6.25246 0.989512 6.17005 1.18848 6.02335 1.33517L1.88741 5.46955L6.02335 9.60393C6.0961 9.6765 6.15383 9.76271 6.19321 9.85762C6.2326 9.95254 6.25287 10.0543 6.25287 10.1571C6.25287 10.2598 6.2326 10.3616 6.19321 10.4565C6.15383 10.5514 6.0961 10.6376 6.02335 10.7102V10.7102Z" fill="#F78CB6"/>
<path fill-rule="evenodd" clip-rule="evenodd" d="M18.7515 5.46948C18.7515 5.67668 18.6692 5.8754 18.5226 6.02191C18.3761 6.16842 18.1774 6.25073 17.9702 6.25073H1.56396C1.35676 6.25073 1.15805 6.16842 1.01154 6.02191C0.865024 5.8754 0.782715 5.67668 0.782715 5.46948C0.782715 5.26228 0.865024 5.06357 1.01154 4.91705C1.15805 4.77054 1.35676 4.68823 1.56396 4.68823H17.9702C18.1774 4.68823 18.3761 4.77054 18.5226 4.91705C18.6692 5.06357 18.7515 5.26228 18.7515 5.46948Z" fill="#F78CB6"/>
</svg>
