<svg width="14" height="9" viewBox="0 0 14 9" fill="none" xmlns="http://www.w3.org/2000/svg">
<path fill-rule="evenodd" clip-rule="evenodd" d="M4.58575 0.517332C4.63813 0.572486 4.67969 0.638007 4.70805 0.710142C4.73641 0.782276 4.751 0.859608 4.751 0.937707C4.751 1.01581 4.73641 1.09314 4.70805 1.16527C4.67969 1.23741 4.63813 1.30293 4.58575 1.35808L1.60787 4.50021L4.58575 7.64233C4.63805 7.69754 4.67953 7.76307 4.70784 7.8352C4.73614 7.90733 4.75071 7.98464 4.75071 8.06271C4.75071 8.14078 4.73614 8.21808 4.70784 8.29021C4.67953 8.36234 4.63805 8.42788 4.58575 8.48308C4.53345 8.53829 4.47136 8.58208 4.40303 8.61195C4.3347 8.64183 4.26146 8.65721 4.1875 8.65721C4.11354 8.65721 4.0403 8.64183 3.97197 8.61195C3.90364 8.58208 3.84155 8.53829 3.78925 8.48308L0.414248 4.92058C0.361865 4.86543 0.320304 4.79991 0.291947 4.72777C0.26359 4.65564 0.248993 4.57831 0.248993 4.50021C0.248993 4.42211 0.26359 4.34478 0.291947 4.27264C0.320304 4.20051 0.361865 4.13499 0.414248 4.07983L3.78925 0.517332C3.8415 0.462038 3.90357 0.418168 3.97191 0.388235C4.04025 0.358303 4.11351 0.342896 4.1875 0.342896C4.26149 0.342896 4.33475 0.358303 4.40309 0.388235C4.47142 0.418168 4.5335 0.462038 4.58575 0.517332Z" fill="#56597A" fill-opacity="0.6"/>
<path fill-rule="evenodd" clip-rule="evenodd" d="M0.8125 4.50024C0.8125 4.34277 0.871763 4.19175 0.977253 4.0804C1.08274 3.96905 1.22582 3.90649 1.375 3.90649H13.1875C13.3367 3.90649 13.4798 3.96905 13.5852 4.0804C13.6907 4.19175 13.75 4.34277 13.75 4.50024C13.75 4.65772 13.6907 4.80874 13.5852 4.92009C13.4798 5.03144 13.3367 5.09399 13.1875 5.09399H1.375C1.22582 5.09399 1.08274 5.03144 0.977253 4.92009C0.871763 4.80874 0.8125 4.65772 0.8125 4.50024Z" fill="#56597A" fill-opacity="0.6"/>
</svg>
