<svg width="1440" height="449" viewBox="0 0 1440 449" fill="none" xmlns="http://www.w3.org/2000/svg">
<path d="M411.985 13.3431C224.777 -35.5822 -3.17511 263.546 -86 418.476L1409.5 416.976V379.476C1317.34 259.202 1200.29 126.652 1153.28 92.3369C1038.8 -9.99843 908.246 104.059 857.277 173.879C799.833 254.606 732.781 220.766 706.435 193.755C579.564 72.2571 457.272 22.8563 411.985 13.3431Z" fill="#FFF2F6"/>
<path d="M483.038 6.91782C276.602 -47.0315 42.3312 281.16 -49 452H1537L1558.5 390.5C1456.88 257.875 1352.3 131.863 1300.46 94.0235C1174.23 -18.8206 1030.27 106.949 974.062 183.939C910.719 272.955 836.78 235.641 807.729 205.856C667.827 71.8817 532.976 17.4079 483.038 6.91782Z" stroke="#FEDDE8"/>
</svg>
